PathFileType	4	(X/Y/Z)	RBDS04\RBDS04runT45.trc
DataRate	CameraRate	NumFrames	NumMarkers	Units	OrigDataRate	OrigDataStartFrame	OrigNumFrames
150.000000	150.000000	4	33	mm	150.000000	2812	4500
Frame#	Time	L.ASIS			L.Heel.Bottom			L.Heel.Lateral			L.Heel.Top			L.Iliac.Crest			L.MT1			L.MT5			L.PSIS			L.Shank.Bottom.Lateral			L.Shank.Bottom.Medial			L.Shank.Top.Lateral			L.Shank.Top.Medial			L.Thigh.Bottom.Lateral			L.Thigh.Bottom.Medial			L.Thigh.Top.Lateral			L.Thigh.Top.Medial			R.ASIS			R.ASY			R.Heel.Bottom			R.Heel.Lateral			R.Heel.Top			R.Iliac.Crest			R.MT1			R.MT5			R.PSIS			R.Shank.Bottom.Lateral			R.Shank.Bottom.Medial			R.Shank.Top.Lateral			R.Shank.Top.Medial			R.Thigh.Bottom.Lateral			R.Thigh.Bottom.Medial			R.Thigh.Top.Lateral			R.Thigh.Top.Medial			
		X1	Y1	Z1	X2	Y2	Z2	X3	Y3	Z3	X4	Y4	Z4	X5	Y5	Z5	X6	Y6	Z6	X7	Y7	Z7	X8	Y8	Z8	X9	Y9	Z9	X10	Y10	Z10	X11	Y11	Z11	X12	Y12	Z12	X13	Y13	Z13	X14	Y14	Z14	X15	Y15	Z15	X16	Y16	Z16	X17	Y17	Z17	X18	Y18	Z18	X19	Y19	Z19	X20	Y20	Z20	X21	Y21	Z21	X22	Y22	Z22	X23	Y23	Z23	X24	Y24	Z24	X25	Y25	Z25	X26	Y26	Z26	X27	Y27	Z27	X28	Y28	Z28	X29	Y29	Z29	X30	Y30	Z30	X31	Y31	Z31	X32	Y32	Z32	X33	Y33	Z33	

2813	18.74666666666667	2279.203588508757	983.2724972218659	904.5645917316261	2215.969246239429	234.8856303465452	916.8049278860103	2249.209436517576	242.2255337310638	872.9616210110537	2244.714591522542	272.6014780345069	918.6563689270915	2218.521455838958	1053.205428939147	845.393317574808	2418.314935330282	155.392682209077	929.3729448736294	2378.279581344018	167.2131369144554	836.5005582916455	2116.356913804478	1022.33638028783	939.9869908250602	2338.331765161112	335.0454645679062	858.3454163568919	2299.936437044438	351.5475870481749	887.2266230596416	2364.38117910419	410.5604838980938	844.132578444689	2326.816170923264	431.2966578097188	875.883806832486	2409.476750017795	723.7252680146952	813.1331177674116	2365.572802256309	672.0445440252084	841.0373667459098	2320.805367335101	788.5655915350014	802.1540717659238	2279.513811698136	740.6440178474847	829.1633822946795	2265.834416604024	957.6902069297836	1089.84314995557	-1176474936.417105	-3267741821.012049	-10421780097.30956	1634.111523367886	280.952001692585	1002.506213444688	1649.044533512963	252.3175578862059	1046.004126544199	1676.673461431941	288.8597853892091	1016.786422942393	2231.400343377344	1027.981282390465	1122.044462249919	1734.220010491522	93.64906156982418	974.9909951219283	1688.010054220074	105.0554864854001	1063.586232026599	2117.024089735843	1020.066459298293	1026.495630365327	1748.70431931618	305.7577586672351	1076.780757038106	1726.856294794801	329.8902850716304	1033.16491813442	1787.626373840348	375.5714159553302	1093.216220305855	1766.941684096568	397.6777293466244	1048.738072535505	2016.556756198798	648.3964072726184	1123.18438154864	1973.828582779744	673.4707019564822	1068.293981994669	2050.350914467735	752.2887259506592	1140.938062358276	2011.450975104632	775.7326651288055	1086.926206632149	
2814	18.75333333333333	2279.210562882386	985.3685293489241	904.5239065806638	2242.030125166376	213.6765533494485	915.7392649900662	2274.766759096769	223.1871713756721	871.933326796441	2267.580340494217	253.5489294560706	917.2159595468878	2218.877092711631	1055.611951884322	845.5163172724639	2449.698793535141	151.1442115840247	929.9239876585491	2409.431160998047	158.5118698282623	836.8524253635088	2116.813404747609	1024.940924209903	940.2667072060409	2355.690693102722	323.7678216878635	857.4416883352699	2316.563743293714	337.3914692774782	886.7286341104506	2376.059108257409	400.8689957922824	843.1288069801147	2337.445891426834	418.8179896445937	875.2971039116159	2405.996549522595	722.0133363718408	813.6540427392064	2361.532510699468	671.0542121419076	841.9803898061665	2318.126820988295	788.0495377125993	802.9837465929371	2276.399408229773	740.9291049895562	830.7195073235988	2266.692162848657	961.0003417274135	1089.959547940113	-1178022845.045015	-3272037007.457394	-10435485442.86691	1626.306456551013	300.6726848262505	1003.041325295774	1639.141385339534	270.5775470829771	1046.347721415943	1669.355453226344	305.6512053216185	1017.579847634806	2232.046214068741	1031.87135980751	1121.961591433256	1715.225694281656	106.8712564081287	974.7633614214545	1669.009724833587	119.5068036858015	1062.570677404208	2117.799630803778	1023.448105724698	1026.846466846364	1739.535257971727	318.147676495227	1077.314219285123	1718.676433942613	342.6898147350086	1033.475190775142	1780.61709117486	386.6312151781319	1093.451842022393	1760.707368793627	409.2132191126894	1048.932253330607	2015.991035601273	653.0119119640231	1123.700317701625	1973.328097118611	678.431063601815	1068.956401587867	2050.471780691777	756.6210533086252	1141.64271942791	2011.580269345007	780.3850017968383	1087.788900587098	
2815	18.76	2279.063817334198	987.1435395434665	904.4323910385227	2268.258740901181	193.2673829932531	914.732185969841	2300.384602193407	204.8467793027123	870.9623272792901	2290.434745468039	235.0229553476485	915.7570688885039	2218.92420998444	1057.444840343933	845.6353059562829	2479.805079080265	148.2094563785816	930.819283103405	2439.828572623007	150.9625116083125	837.488088276674	2117.040276548776	1027.129060191635	940.6487129321821	2372.387990229678	312.6482200107883	856.6184385290271	2332.723770865259	323.3337409712019	886.2687887805412	2386.957723264925	390.8909004270557	842.182611538896	2347.461854886515	405.9721357048498	874.6975577754647	2401.50097444353	718.8678460851648	814.0022004345212	2356.3805902202	668.9757985239149	843.0545913146469	2314.778257297243	786.4638066190881	803.6401278148185	2272.489027148918	740.4357290314507	832.3034225906873	2267.392556549915	964.1193799568034	1090.050475488356	-1179572110.797626	-3276335956.039495	-10449202798.79362	1618.410134472657	320.0674340523599	1003.497142113465	1629.388810272079	288.7561932472323	1046.554144519226	1661.722949253437	322.408495434848	1018.141327268468	2232.443432280876	1035.586511646631	1121.906173553471	1697.071278143246	121.3854411975298	974.1138816873572	1651.036657986844	135.102025371693	1061.331371784594	2118.358880843643	1026.435395553083	1027.30063957009	1730.876738736078	330.8863445448927	1077.51101367982	1711.067746862525	356.0894383367729	1033.601841341663	1774.530949483726	397.6410540591111	1093.475535322005	1755.46209295385	420.9460529874935	1049.034371788159	2016.795973860918	656.1859355711717	1124.25884532502	1973.852305321524	681.8034420956391	1069.880825620895	2051.490447024791	759.6433499684324	1142.471367355261	2012.140733159542	783.6133900137669	1089.099964847407	
2816	18.76666666666667	2278.80274225121	988.6399780465611	904.3229240619103	2294.327033829211	173.9265517411532	913.8267903517325	2325.745641502301	187.476247183399	870.0866773944813	2312.999324280112	217.2759919069871	914.337433594606	2218.685496684715	1058.774057181609	845.773367406385	2508.302980827899	146.6211856290052	931.9823682305586	2469.119079464231	144.7124747205986	838.3541529996808	2117.103594405438	1028.940228609147	941.1431951952391	2388.247909012358	301.8729829778679	855.9031246816007	2348.225879836225	309.5731008259785	885.8639934174855	2396.956352837169	380.8130360847738	841.339890170689	2356.736152737623	392.9543655587731	874.1200031095774	2396.057086472182	714.4439249284078	814.1894897950095	2350.216193235073	665.9665669266969	844.2689129792591	2310.846286903279	783.9372501470298	804.1162830461296	2267.889931976616	739.2889012356757	833.8810923245524	2267.971115751543	966.9855520713304	1090.123229932049	-1181122734.269592	-3280638668.405251	-10462932170.34989	1610.507088606813	339.1683535404792	1003.925410155484	1619.901017454873	306.8399347426187	1046.674164085596	1653.916471278546	339.1620292418438	1018.52269684896	2232.657512501618	1039.074169625216	1121.865503119401	1679.887331081652	136.9754266215948	973.0822369396298	1634.221711669501	151.6352218320764	1059.938354331166	2118.760341803393	1029.01140296394	1027.868907353487	1722.821540381807	343.9507539822878	1077.407544408122	1704.128432771877	370.023400127993	1033.557368863496	1769.363349993088	408.5994905802238	1093.31923044954	1751.215950056198	432.8301446301692	1049.051225494976	2018.821982019087	657.9590432472844	1124.833326033071	1975.297558720894	683.644879879683	1071.001244806953	2053.301300101269	761.3932551934881	1143.386543408155	2013.079137590124	785.4648015143516	1090.781419660543	
